<svg xmlns="http://www.w3.org/2000/svg" viewBox="0 0 900 600"><rect x="0" y="0" width="900" height="600" fill="#002395"/><polygon points="0,0 900,0 0,600" fill="#fecd16"/><polygon points="120.0,-13.0 126.5,6.1 146.6,6.3 130.5,18.4 136.5,37.7 120.0,26.0 103.5,37.7 109.5,18.4 93.4,6.3 113.5,6.1" fill="#fff"/><polygon points="217.0,68.0 223.5,87.1 243.6,87.3 227.5,99.4 233.5,118.7 217.0,107.0 200.5,118.7 206.5,99.4 190.4,87.3 210.5,87.1" fill="#fff"/><polygon points="314.0,149.0 320.5,168.1 340.6,168.3 324.5,180.4 330.5,199.7 314.0,188.0 297.5,199.7 303.5,180.4 287.4,168.3 307.5,168.1" fill="#fff"/><polygon points="411.0,231.0 417.5,250.1 437.6,250.3 421.5,262.4 427.5,281.7 411.0,270.0 394.5,281.7 400.5,262.4 384.4,250.3 404.5,250.1" fill="#fff"/><polygon points="508.0,312.0 514.5,331.1 534.6,331.3 518.5,343.4 524.5,362.7 508.0,351.0 491.5,362.7 497.5,343.4 481.4,331.3 501.5,331.1" fill="#fff"/><polygon points="605.0,394.0 611.5,413.1 631.6,413.3 615.5,425.4 621.5,444.7 605.0,433.0 588.5,444.7 594.5,425.4 578.4,413.3 598.5,413.1" fill="#fff"/><polygon points="702.0,475.0 708.5,494.1 728.6,494.3 712.5,506.4 718.5,525.7 702.0,514.0 685.5,525.7 691.5,506.4 675.4,494.3 695.5,494.1" fill="#fff"/><polygon points="800.0,557.0 806.5,576.1 826.6,576.3 810.5,588.4 816.5,607.7 800.0,596.0 783.5,607.7 789.5,588.4 773.4,576.3 793.5,576.1" fill="#fff"/></svg>