<svg xmlns="http://www.w3.org/2000/svg" viewBox="0 0 900 600"><rect x="0" y="0.0" width="900" height="66.66666666666667" fill="#fff"/><rect x="0" y="66.66666666666667" width="900" height="66.66666666666667" fill="#74acdf"/><rect x="0" y="133.33333333333334" width="900" height="66.66666666666667" fill="#fff"/><rect x="0" y="200.0" width="900" height="66.66666666666667" fill="#74acdf"/><rect x="0" y="266.6666666666667" width="900" height="66.66666666666667" fill="#fff"/><rect x="0" y="333.33333333333337" width="900" height="66.66666666666667" fill="#74acdf"/><rect x="0" y="400.0" width="900" height="66.66666666666667" fill="#fff"/><rect x="0" y="466.6666666666667" width="900" height="66.66666666666667" fill="#74acdf"/><rect x="0" y="533.3333333333334" width="900" height="66.66666666666667" fill="#fff"/><rect x="0" y="0" width="266.6666666666667" height="266.6666666666667" fill="#fff"/><circle cx="133.33333333333334" cy="133.33333333333334" r="70" fill="#f6b40e"/><line x1="208.33333333333334" y1="133.33333333333334" x2="253.33333333333334" y2="133.33333333333334" stroke="#f6b40e" stroke-width="10"/><line x1="202.62429827167983" y1="162.03459076071508" x2="244.19887723468776" y2="179.2553452171441" stroke="#f6b40e" stroke-width="10"/><line x1="186.3663419223244" y1="186.3663419223244" x2="218.18614707571905" y2="218.18614707571902" stroke="#f6b40e" stroke-width="10"/><line x1="162.03459076071508" y1="202.62429827167983" x2="179.2553452171441" y2="244.19887723468776" stroke="#f6b40e" stroke-width="10"/><line x1="133.33333333333334" y1="208.33333333333334" x2="133.33333333333334" y2="253.33333333333334" stroke="#f6b40e" stroke-width="10"/><line x1="104.63207590595161" y1="202.62429827167983" x2="87.41132144952257" y2="244.19887723468776" stroke="#f6b40e" stroke-width="10"/><line x1="80.30032474434228" y1="186.3663419223244" x2="48.48051959094765" y2="218.18614707571905" stroke="#f6b40e" stroke-width="10"/><line x1="64.04236839498684" y1="162.03459076071508" x2="22.46778943197893" y2="179.25534521714414" stroke="#f6b40e" stroke-width="10"/><line x1="58.33333333333334" y1="133.33333333333334" x2="13.333333333333343" y2="133.33333333333337" stroke="#f6b40e" stroke-width="10"/><line x1="64.04236839498682" y1="104.63207590595161" x2="22.467789431978915" y2="87.41132144952257" stroke="#f6b40e" stroke-width="10"/><line x1="80.30032474434228" y1="80.30032474434228" x2="48.48051959094762" y2="48.48051959094765" stroke="#f6b40e" stroke-width="10"/><line x1="104.63207590595157" y1="64.04236839498685" x2="87.4113214495225" y2="22.467789431978957" stroke="#f6b40e" stroke-width="10"/><line x1="133.33333333333334" y1="58.33333333333334" x2="133.33333333333331" y2="13.333333333333343" stroke="#f6b40e" stroke-width="10"/><line x1="162.0345907607151" y1="64.04236839498685" x2="179.25534521714414" y2="22.467789431978943" stroke="#f6b40e" stroke-width="10"/><line x1="186.3663419223244" y1="80.30032474434228" x2="218.18614707571902" y2="48.48051959094762" stroke="#f6b40e" stroke-width="10"/><line x1="202.62429827167983" y1="104.63207590595157" x2="244.19887723468773" y2="87.41132144952249" stroke="#f6b40e" stroke-width="10"/><circle cx="133.33333333333334" cy="133.33333333333334" r="70" fill="#f6b40e"/></svg>